<?xml version="1.0" encoding="UTF-8" standalone="no"?>
<!DOCTYPE svg PUBLIC "-//W3C//DTD SVG 1.1//EN" "http://www.w3.org/Graphics/SVG/1.1/DTD/svg11.dtd">
<svg width="155.52" height="126.00" viewBox="0.00 0.00 1296.00 1050.00" xmlns="http://www.w3.org/2000/svg" xmlns:xlink="http://www.w3.org/1999/xlink">
<g stroke-linecap="round" id="Layer_4">
<path d="M307.50,478.50 C307.20,482.49 307.98,486.89 309.88,490.45 C313.46,496.98 321.47,507.81 326.03,512.50 C330.91,517.48 342.10,526.15 349.05,530.41 C355.42,534.29 367.18,540.21 374.48,543.37 C380.16,545.77 393.52,550.24 400.25,552.05 C409.68,554.35 421.44,556.55 428.64,557.73 C438.99,559.14 447.89,559.90 458.08,560.31 C465.71,560.48 477.68,560.47 487.18,559.96 C504.59,558.73 522.80,556.19 545.34,552.08 C556.64,549.96 590.08,539.78 605.14,535.07 C605.85,534.84 606.56,534.62 607.27,534.39" fill="none" stroke="rgb(250, 142, 67)" stroke-width="500.00" stroke-opacity="1.00" stroke-linejoin="round"/>
<path d="M415.50,572.50 C410.06,569.58 406.70,567.60 405.73,565.92 C403.88,562.52 402.58,556.73 402.87,553.28 C403.36,548.36 409.03,536.32 412.97,530.77 C416.09,526.40 427.32,514.32 432.56,509.05 C437.75,503.96 450.63,493.18 454.70,490.06 C467.53,480.50 489.38,466.97 501.44,460.38 C513.66,453.91 539.04,442.39 553.92,436.82 C560.01,434.68 572.26,430.45 580.71,428.40 C587.72,426.80 603.70,423.50 611.59,421.91 C612.94,421.64 615.38,421.15 616.46,420.94" fill="none" stroke="rgb(250, 142, 67)" stroke-width="500.00" stroke-opacity="1.00" stroke-linejoin="round"/>
<path d="M306.50,514.50 C306.50,514.50 299.12,512.96 299.12,512.96 C300.05,509.82 301.27,507.79 304.84,503.16 C308.91,497.99 315.92,490.81 322.89,484.27 C328.46,479.21 340.00,469.43 345.97,464.69 C352.19,459.95 364.43,451.26 370.52,447.25 C376.75,443.31 387.67,436.79 395.96,432.29 C402.65,428.83 416.05,422.39 422.76,419.47 C429.54,416.68 445.61,410.63 450.07,409.20 C465.97,404.29 491.78,398.19 506.14,395.93 C527.05,392.94 539.18,393.48 540.25,393.53" fill="none" stroke="rgb(250, 142, 67)" stroke-width="500.00" stroke-opacity="1.00" stroke-linejoin="round"/>
<path d="M586.00,367.50 C582.59,364.88 579.32,362.72 576.52,362.34 C573.25,361.95 558.46,362.89 548.61,364.42 C540.59,365.76 526.97,368.36 518.08,370.48 C508.62,373.01 500.19,375.60 489.94,379.15 C481.06,382.43 467.95,388.19 460.62,391.63 C447.18,398.21 420.43,413.41 407.55,421.90 C394.80,430.65 372.32,448.75 359.48,459.90 C353.86,464.95 343.55,474.36 339.15,479.79 C336.66,482.96 332.43,488.37 330.68,490.62" fill="none" stroke="rgb(250, 142, 67)" stroke-width="500.00" stroke-opacity="1.00" stroke-linejoin="round"/>
<path d="M222.77,531.41 C224.54,528.53 234.19,518.92 239.54,513.68 C251.04,502.92 273.18,483.13 285.30,472.85 C297.62,462.92 321.69,443.88 333.44,434.77 C343.74,427.21 360.44,415.60 364.23,413.01" fill="none" stroke="rgb(250, 142, 67)" stroke-width="500.00" stroke-opacity="1.00" stroke-linejoin="round"/>
<path d="M204.21,531.04 C204.21,531.04 201.28,531.53 201.28,531.53 C201.43,532.05 204.93,530.13 210.12,526.00 C213.79,523.01 225.35,511.92 231.02,506.49" fill="none" stroke="rgb(250, 142, 67)" stroke-width="100.00" stroke-opacity="1.00" stroke-linejoin="round"/>
<path d="M199.32,531.53 C199.32,531.53 200.33,525.85 200.33,525.85 C200.76,526.31 203.10,530.47 205.84,532.55 C208.37,534.44 213.19,536.83 215.27,537.35" fill="none" stroke="rgb(250, 142, 67)" stroke-width="100.00" stroke-opacity="1.00" stroke-linejoin="round"/>
<path d="M209.09,531.53 C209.09,531.53 203.23,534.46 203.23,534.46 C202.83,533.27 203.84,529.10 205.36,526.70 C207.18,523.92 210.56,520.77 214.11,518.12 C222.97,511.65 231.33,506.17 234.92,502.60" fill="none" stroke="rgb(250, 142, 67)" stroke-width="100.00" stroke-opacity="1.00" stroke-linejoin="round"/>
<path d="M248.67,495.38 C248.67,495.38 242.31,497.33 242.31,497.33 C243.21,493.99 246.18,488.85 247.75,486.85 C250.85,482.96 276.03,457.37 290.64,443.75 C296.56,438.48 309.18,427.97 315.48,423.09 C323.61,417.07 331.32,411.93 339.07,407.42 C344.48,404.34 349.95,402.21 351.58,401.62" fill="none" stroke="rgb(250, 142, 67)" stroke-width="100.00" stroke-opacity="1.00" stroke-linejoin="round"/>
<path d="M350.77,397.18 C350.77,397.18 348.77,393.23 348.77,393.23 C339.65,398.54 332.43,402.97 325.50,408.07 C316.69,414.67 296.10,432.94 282.55,445.96 C277.48,450.95 266.89,461.50 261.37,467.04 C250.11,478.70 231.60,498.59 225.02,505.74" fill="none" stroke="rgb(250, 142, 67)" stroke-width="100.00" stroke-opacity="1.00" stroke-linejoin="round"/>
<path d="M252.57,476.81 C252.57,476.81 249.15,479.74 249.15,479.74 C272.91,458.33 308.21,426.63 319.77,416.35 C322.76,413.78 353.31,390.48 365.19,383.11 C369.78,380.27 389.38,370.58 392.49,369.21 C396.85,367.31 403.14,365.09 406.05,364.46" fill="none" stroke="rgb(250, 142, 67)" stroke-width="100.00" stroke-opacity="1.00" stroke-linejoin="round"/>
<path d="M433.82,346.86 C433.82,346.86 430.03,345.76 430.03,345.76 C432.11,344.24 436.42,342.35 441.50,340.74 C449.23,338.51 464.76,334.62 470.70,333.56 C484.88,331.23 512.57,329.06 527.80,328.05 C536.06,327.60 552.49,327.06 559.30,327.24 C563.58,327.36 578.80,328.46 588.10,329.51 C596.92,330.62 610.53,333.15 618.40,335.62 C637.27,341.79 642.98,345.28 643.89,345.88" fill="none" stroke="rgb(250, 142, 67)" stroke-width="100.00" stroke-opacity="1.00" stroke-linejoin="round"/>
<path d="M485.61,332.21 C485.61,332.21 484.74,330.22 484.74,330.22 C484.90,329.72 485.17,329.34 485.54,329.07 C485.92,328.81 486.92,328.29 488.54,327.52" fill="none" stroke="rgb(250, 142, 67)" stroke-width="100.00" stroke-opacity="1.00" stroke-linejoin="round"/>
<path d="M495.38,324.39 C495.41,324.41 495.48,324.41 495.57,324.39 C496.04,324.27 496.50,324.10 496.97,323.97 C504.07,321.99 517.48,320.63 524.18,320.76 C530.27,320.90 540.96,322.82 552.16,325.45 C573.99,330.83 584.94,334.51 608.92,343.54 C617.48,346.81 633.08,352.91 640.13,355.73 C650.25,359.97 655.24,363.13 660.54,366.96" fill="none" stroke="rgb(250, 142, 67)" stroke-width="100.00" stroke-opacity="1.00" stroke-linejoin="round"/>
<path d="M860.73,497.62 C859.67,496.48 848.64,486.33 843.03,481.89 C831.89,473.23 806.97,454.79 795.05,446.17 C781.24,436.76 754.15,419.26 740.95,410.87 C729.78,404.02 699.78,387.67 690.26,382.99 C669.55,373.31 659.31,369.88 657.92,369.91" fill="none" stroke="rgb(250, 142, 67)" stroke-width="100.00" stroke-opacity="1.00" stroke-linejoin="round"/>
<path d="M864.25,497.95 C860.06,492.65 849.45,483.70 843.55,478.80 C831.77,469.14 805.81,449.08 793.35,440.06 C781.39,431.57 752.61,413.82 742.49,408.13 C728.88,400.76 700.20,386.37 690.26,381.88 C674.82,375.24 666.25,371.90 665.09,371.58" fill="none" stroke="rgb(250, 142, 67)" stroke-width="100.00" stroke-opacity="1.00" stroke-linejoin="round"/>
<path d="M813.53,452.13 C813.53,452.13 815.39,452.24 815.39,452.24 C813.22,449.90 796.13,434.40 793.30,432.04 C786.39,426.33 758.49,408.73 746.87,401.99 C737.78,396.93 704.52,380.26 694.70,375.87 C681.47,370.16 655.86,360.87 640.86,356.64 C625.87,352.74 608.67,349.74 601.19,349.13 C599.43,348.98 598.41,348.97 596.46,349.04" fill="none" stroke="rgb(250, 142, 67)" stroke-width="100.00" stroke-opacity="1.00" stroke-linejoin="round"/>
<path d="M776.02,420.60 C776.02,420.60 778.82,421.39 778.82,421.39 C776.16,418.91 761.55,407.92 755.42,403.33 C743.68,394.65 715.70,376.94 707.22,372.22 C694.56,365.47 668.85,354.24 655.92,349.62 C647.73,346.85 632.26,342.31 628.25,341.31 C621.91,339.72 605.64,336.76 598.04,335.58 C593.79,334.97 589.06,334.56 583.90,334.24" fill="none" stroke="rgb(250, 142, 67)" stroke-width="100.00" stroke-opacity="1.00" stroke-linejoin="round"/>
<path d="M752.81,448.99 C752.76,446.78 752.75,442.65 752.66,442.01 C752.31,439.62 748.22,433.51 746.61,431.84 C742.33,427.46 731.87,419.95 723.57,415.07 C718.96,412.43 704.75,404.97 697.91,401.68 C688.92,397.57 677.26,392.85 670.51,390.33 C665.46,388.54 647.63,383.05 642.32,381.67 C635.03,379.91 623.08,377.36 613.23,375.78 C603.49,374.46 592.14,373.49 585.50,373.08 C576.03,372.64 566.25,372.54 556.68,373.07 C544.63,373.92 538.52,374.99 536.74,375.88 C538.63,377.32 545.25,378.73 546.85,379.08 C563.14,382.61 594.90,389.96 609.17,393.79 C623.30,397.91 652.03,407.28 667.31,412.74 C678.58,416.96 711.16,430.62 724.10,436.59 C734.71,441.74 770.33,461.41 777.24,465.94 C784.80,471.07 795.91,479.57 799.13,482.82 C799.85,483.56 802.12,486.54 802.72,487.59 C803.45,488.94 803.49,491.13 802.81,491.88 C801.42,493.26 796.00,493.41 791.29,492.98 C783.28,492.08 752.42,484.19 736.00,479.64 C705.75,470.68 643.52,451.73 641.95,450.90 C645.45,450.73 716.96,470.17 733.57,474.74 C742.07,477.12 753.55,480.77 759.42,482.74 C760.53,483.09 761.63,483.43 762.73,483.77" fill="none" stroke="rgb(250, 142, 67)" stroke-width="100.00" stroke-opacity="1.00" stroke-linejoin="round"/>
<path d="M831.73,468.31 C829.85,464.57 827.62,461.42 823.61,457.31 C813.16,446.59 792.07,428.05 782.69,420.92 C775.04,415.29 767.74,410.34 758.95,404.88 C753.99,401.92 738.31,393.47 730.93,390.08 C723.62,386.87 711.09,381.73 704.92,379.40 C688.51,373.55 676.23,370.76 674.99,370.62" fill="none" stroke="rgb(250, 142, 67)" stroke-width="100.00" stroke-opacity="1.00" stroke-linejoin="round"/>
<path d="M800.37,436.63 C794.46,430.96 787.11,426.32 782.23,423.14 C772.75,416.91 742.24,399.01 732.44,394.12 C722.96,389.66 713.81,385.91 703.35,382.18 C696.15,379.75 683.19,375.80 676.90,373.95 C655.35,368.34 647.82,367.57 645.51,367.52" fill="none" stroke="rgb(250, 142, 67)" stroke-width="100.00" stroke-opacity="1.00" stroke-linejoin="round"/>
<path d="M1098.12,327.60 C1098.12,327.60 1098.80,326.77 1098.80,326.77 C1094.83,331.55 1084.33,340.86 1077.68,346.47 C1065.09,356.48 1043.26,373.94 1031.25,383.96 C1004.90,406.90 967.32,439.71 956.09,449.59 C943.71,460.61 930.27,472.58 930.08,472.77 C929.89,472.96 929.52,473.35 928.98,473.95" fill="none" stroke="rgb(250, 142, 67)" stroke-width="100.00" stroke-opacity="1.00" stroke-linejoin="round"/>
<path d="M1069.77,357.35 C1069.77,357.35 1071.51,354.17 1071.51,354.17 C1061.57,359.89 1054.58,364.16 1048.53,368.29 C1022.91,386.95 971.08,425.30 947.39,443.67 C935.92,452.54 912.45,470.67 900.46,479.94 C887.73,490.20 856.77,515.61 852.34,519.89 C847.39,524.68 844.60,528.87 843.91,530.02" fill="none" stroke="rgb(250, 142, 67)" stroke-width="100.00" stroke-opacity="1.00" stroke-linejoin="round"/>
<path d="M979.75,428.74 C979.75,428.74 989.02,420.22 989.02,420.22 C987.27,421.54 952.91,443.97 940.85,451.91 C928.18,460.53 906.42,476.33 894.71,485.03 C882.33,494.49 856.37,514.75 842.79,525.56 C835.65,531.43 822.71,542.10 816.91,546.90 C814.85,548.61 811.98,550.99 811.16,551.67" fill="none" stroke="rgb(250, 142, 67)" stroke-width="100.00" stroke-opacity="1.00" stroke-linejoin="round"/>
<path d="M1097.75,330.17 C1097.96,329.20 1098.53,326.55 1098.61,326.10 C1098.68,325.64 1098.70,325.17 1098.78,324.71 C1098.81,324.54 1098.89,324.29 1099.01,323.95" fill="none" stroke="rgb(250, 142, 67)" stroke-width="100.00" stroke-opacity="1.00" stroke-linejoin="round"/>
<path d="M1099.87,322.95 C1100.07,325.91 1093.97,353.75 1089.79,378.74 C1087.34,395.12 1083.11,425.99 1081.34,440.48 C1079.53,456.87 1076.75,482.51 1075.77,491.77" fill="none" stroke="rgb(250, 142, 67)" stroke-width="100.00" stroke-opacity="1.00" stroke-linejoin="round"/>
<path d="M1100.01,340.07 C1100.01,340.07 1100.39,333.62 1100.39,333.62 C1101.40,335.82 1099.80,347.61 1099.37,350.51" fill="none" stroke="rgb(250, 142, 67)" stroke-width="100.00" stroke-opacity="1.00" stroke-linejoin="round"/>
<path d="M1098.66,355.08 C1098.42,356.86 1098.10,359.13 1097.86,360.67 C1096.32,370.54 1092.25,407.39 1091.09,416.83 C1086.07,451.02 1075.19,516.14 1069.81,548.48 C1068.80,555.64 1066.95,569.42 1066.10,576.04 C1064.15,592.77 1060.88,621.12 1059.56,632.73" fill="none" stroke="rgb(250, 142, 67)" stroke-width="100.00" stroke-opacity="1.00" stroke-linejoin="round"/>
<path d="M1089.97,394.58 C1089.97,394.58 1091.42,386.72 1091.42,386.72" fill="none" stroke="rgb(250, 142, 67)" stroke-width="100.00" stroke-opacity="1.00" stroke-linejoin="round"/>
<path d="M1092.91,386.05 C1094.12,387.27 1095.05,401.51 1094.89,408.68 C1094.51,420.09 1092.03,452.84 1090.74,467.36 C1088.49,488.76 1078.21,561.30 1073.41,594.01 C1068.72,624.22 1062.24,665.86 1060.44,677.31" fill="none" stroke="rgb(250, 142, 67)" stroke-width="100.00" stroke-opacity="1.00" stroke-linejoin="round"/>
<path d="M1085.05,556.90 C1085.05,556.90 1085.15,552.78 1085.15,552.78" fill="none" stroke="rgb(250, 142, 67)" stroke-width="100.00" stroke-opacity="1.00" stroke-linejoin="round"/>
<path d="M1084.21,526.07 C1084.17,526.56 1084.17,527.23 1084.24,529.23 C1084.67,541.98 1084.45,575.21 1083.95,591.09 C1083.14,606.88 1080.65,638.40 1078.98,654.57 C1076.69,674.56 1074.35,691.12 1073.98,694.13" fill="none" stroke="rgb(250, 142, 67)" stroke-width="100.00" stroke-opacity="1.00" stroke-linejoin="round"/>
<path d="M1079.44,588.55 C1079.44,588.55 1080.21,586.03 1080.21,586.03 C1080.67,594.42 1079.77,631.62 1079.29,649.95 C1078.89,667.25 1078.46,697.89 1078.42,711.22 C1078.53,724.60 1078.59,725.83 1078.71,727.52" fill="none" stroke="rgb(250, 142, 67)" stroke-width="100.00" stroke-opacity="1.00" stroke-linejoin="round"/>
<path d="M1077.31,642.41 C1077.31,642.41 1077.51,638.84 1077.51,638.84 C1077.42,644.98 1077.17,660.58 1077.02,670.04 C1076.89,678.58 1076.61,695.98 1076.46,704.84 C1076.34,718.52 1076.21,734.83 1076.22,737.46" fill="none" stroke="rgb(250, 142, 67)" stroke-width="100.00" stroke-opacity="1.00" stroke-linejoin="round"/>
<path d="M1078.16,708.00 C1078.62,709.77 1078.90,713.44 1079.08,719.34 C1079.19,723.43 1079.42,731.29 1079.80,733.52 C1079.92,734.24 1080.66,736.29 1081.05,737.37" fill="none" stroke="rgb(250, 142, 67)" stroke-width="100.00" stroke-opacity="1.00" stroke-linejoin="round"/>
<path d="M1079.03,727.43 C1079.51,731.46 1080.21,735.56 1080.85,736.90 C1081.04,737.30 1081.57,738.30 1082.44,739.91" fill="none" stroke="rgb(250, 142, 67)" stroke-width="100.00" stroke-opacity="1.00" stroke-linejoin="round"/>
<path d="M1073.78,731.07 C1073.49,730.90 1073.12,730.53 1071.68,728.98 C1063.64,720.44 1041.67,695.05 1034.80,687.72 C1023.47,676.00 1004.02,657.69 992.02,647.64 C977.05,635.68 955.79,620.36 943.06,611.65 C927.64,601.49 916.50,595.17 915.49,594.64" fill="none" stroke="rgb(250, 142, 67)" stroke-width="100.00" stroke-opacity="1.00" stroke-linejoin="round"/>
<path d="M1077.81,730.97 C1072.25,728.54 1062.70,721.40 1055.00,715.22 C1029.62,694.57 981.32,655.64 958.42,637.37 C934.87,619.01 899.67,592.83 887.17,584.12 C870.14,572.64 863.04,568.68 862.52,568.47" fill="none" stroke="rgb(250, 142, 67)" stroke-width="100.00" stroke-opacity="1.00" stroke-linejoin="round"/>
<path d="M969.48,636.79 C969.24,635.79 939.27,613.57 927.20,604.88 C914.07,595.59 893.63,581.15 886.32,576.00" fill="none" stroke="rgb(250, 142, 67)" stroke-width="100.00" stroke-opacity="1.00" stroke-linejoin="round"/>
<path d="M1081.66,348.83 C1081.66,348.83 1085.88,343.81 1085.88,343.81 C1082.71,349.06 1075.21,361.62 1071.85,368.56 C1069.62,373.20 1061.99,391.81 1060.50,396.12 C1056.78,406.96 1049.61,440.30 1046.48,455.67 C1043.92,470.34 1039.22,499.55 1037.34,514.15 C1035.75,529.08 1033.54,557.83 1032.91,572.01 C1032.35,588.33 1031.42,620.84 1031.46,635.91 C1031.66,645.26 1032.44,655.50 1033.35,661.90 C1034.47,669.60 1038.64,681.91 1041.39,685.89 C1042.50,687.46 1046.79,692.51 1049.00,693.94 C1051.14,695.32 1057.24,697.89 1058.46,698.40" fill="none" stroke="rgb(250, 142, 67)" stroke-width="100.00" stroke-opacity="1.00" stroke-linejoin="round"/>
<path d="M1060.83,621.68 C1060.83,621.68 1056.57,603.36 1056.57,603.36 C1055.50,607.63 1055.85,623.17 1056.04,630.07 C1057.01,648.08 1059.43,670.85 1062.51,690.89 C1064.33,701.94 1065.81,708.49 1066.40,711.00 C1066.89,713.00 1067.69,716.32 1068.01,717.64" fill="none" stroke="rgb(250, 142, 67)" stroke-width="100.00" stroke-opacity="1.00" stroke-linejoin="round"/>
<path d="M1068.48,716.56 C1068.94,715.44 1069.28,714.40 1069.48,713.21 C1070.24,708.69 1070.24,695.35 1069.51,684.29 C1068.40,668.80 1065.98,633.93 1065.58,623.92 C1065.50,593.76 1065.75,523.05 1066.31,503.98 C1068.29,468.80 1072.40,402.20 1073.20,397.71 C1073.41,401.94 1069.11,439.23 1066.89,455.05 C1064.31,470.59 1055.58,520.78 1055.51,521.16 C1055.43,521.55 1055.28,522.31 1055.04,523.43" fill="none" stroke="rgb(250, 142, 67)" stroke-width="100.00" stroke-opacity="1.00" stroke-linejoin="round"/>
<path d="M1057.10,369.09 C1059.76,367.45 1061.23,366.74 1061.85,366.97 C1062.36,367.17 1063.12,368.15 1063.16,368.68 C1063.23,370.94 1055.50,382.32 1051.02,387.53 C1044.63,394.92 1023.44,414.35 1010.17,425.46 C993.12,439.11 935.13,482.65 906.48,503.97 C895.27,512.35 865.64,534.73 861.50,539.01 C860.74,539.84 859.14,542.34 859.05,543.24 C858.98,544.22 860.21,546.07 861.09,546.79 C866.34,550.78 891.30,565.11 907.70,575.90 C925.18,587.94 1001.06,644.95 1007.59,649.39 C1011.38,651.88 1012.16,652.16 1013.65,652.35 C1014.50,651.66 1014.87,650.38 1014.64,648.46 C1014.33,646.07 1009.71,633.80 1006.59,627.16 C1003.03,619.57 996.20,604.67 994.04,597.47 C992.06,590.73 990.23,578.86 989.86,572.87 C989.45,565.85 990.33,553.54 991.53,545.50 C992.59,538.52 996.47,523.91 998.28,517.69 C1002.16,505.30 1026.31,446.12 1030.47,435.16 C1032.51,429.63 1033.59,426.06 1033.20,423.96 C1031.94,423.13 1028.71,425.11 1025.34,427.71 C1020.45,431.65 993.40,458.31 982.16,469.57 C972.10,479.96 951.75,501.50 941.48,512.65 C930.46,525.24 916.87,541.29 913.56,546.22 C910.75,550.47 908.86,554.93 909.12,556.73 C909.31,557.68 910.49,559.14 911.47,559.62 C913.33,560.46 920.64,560.43 923.71,559.92 C930.01,558.84 942.68,554.19 948.90,550.83 C954.32,547.88 963.60,541.48 967.72,538.03 C973.27,533.28 982.59,523.38 985.67,518.57 C988.31,514.36 988.81,512.83 989.02,511.13 C989.02,511.13 987.98,510.47 987.98,510.47 C985.24,511.70 982.86,513.84 980.89,516.22 C976.12,522.06 970.43,532.93 968.62,537.63 C966.54,543.14 963.47,555.21 962.69,561.12 C961.89,567.44 962.20,580.11 963.61,585.88 C964.34,588.84 966.71,595.38 968.58,598.74 C970.56,602.25 974.03,606.97 976.34,609.35 C979.94,613.00 985.22,616.30 986.05,616.82" fill="none" stroke="rgb(250, 142, 67)" stroke-width="100.00" stroke-opacity="1.00" stroke-linejoin="round"/>
<path d="M877.64,563.63 C876.23,563.38 872.34,566.18 867.92,569.64 C861.40,574.64 850.76,582.18 844.68,586.18 C835.90,591.64 803.92,609.70 789.80,617.51 C776.92,624.42 749.69,637.77 738.47,642.61 C729.03,646.48 717.02,650.92 710.02,653.32 C697.91,657.21 671.68,663.21 652.54,666.43 C645.23,667.46 631.48,669.08 624.77,669.71 C611.79,670.79 594.27,669.89 592.08,669.63" fill="none" stroke="rgb(250, 142, 67)" stroke-width="100.00" stroke-opacity="1.00" stroke-linejoin="round"/>
<path d="M853.13,586.62 C853.13,586.62 857.06,585.17 857.06,585.17 C852.47,586.97 838.19,597.03 832.96,600.92 C820.80,610.10 794.69,629.51 785.85,635.37 C779.64,639.29 767.28,646.91 761.38,650.34 C753.01,655.00 741.94,660.38 734.83,663.56 C730.53,665.43 714.56,671.34 707.92,673.71 C692.90,678.61 664.53,685.89 649.31,689.65 C624.90,695.00 587.03,700.93 584.67,701.31" fill="none" stroke="rgb(250, 142, 67)" stroke-width="100.00" stroke-opacity="1.00" stroke-linejoin="round"/>
<path d="M849.06,585.40 C849.06,585.40 853.81,583.73 853.81,583.73" fill="none" stroke="rgb(250, 142, 67)" stroke-width="100.00" stroke-opacity="1.00" stroke-linejoin="round"/>
<path d="M855.16,584.18 C855.16,584.18 856.33,584.90 856.33,584.90 C856.50,586.21 853.17,589.37 850.88,590.94 C842.28,596.84 832.18,603.24 823.58,607.75 C813.38,612.97 780.98,628.20 768.19,634.23 C760.63,637.66 744.42,645.00 735.77,648.91 C732.77,650.27 728.63,652.14 727.49,652.66" fill="none" stroke="rgb(250, 142, 67)" stroke-width="100.00" stroke-opacity="1.00" stroke-linejoin="round"/>
<path d="M814.08,624.86 C814.08,624.86 813.07,623.27 813.07,623.27 C810.40,625.95 803.25,630.56 793.39,636.42 C778.41,645.15 749.23,660.92 736.27,667.39 C730.88,670.04 716.47,676.65 709.98,679.38 C691.75,686.54 669.06,694.17 655.93,697.74 C641.70,701.24 613.53,707.13 600.15,709.55 C592.99,710.68 578.95,712.58 571.65,713.52 C564.14,714.36 554.40,715.27 552.07,715.48" fill="none" stroke="rgb(250, 142, 67)" stroke-width="100.00" stroke-opacity="1.00" stroke-linejoin="round"/>
<path d="M708.31,684.66 C707.63,683.90 704.20,684.21 700.36,685.73 C692.78,688.68 676.28,694.88 671.32,696.45 C653.82,701.65 625.90,708.48 614.41,710.64 C604.06,712.37 589.61,714.02 585.14,714.34 C572.81,715.11 545.59,713.99 526.44,712.09 C517.92,711.10 482.27,705.38 469.50,702.56 C462.41,700.90 446.49,697.12 437.65,695.00 C430.84,693.29 419.96,690.58 415.88,688.29" fill="none" stroke="rgb(250, 142, 67)" stroke-width="100.00" stroke-opacity="1.00" stroke-linejoin="round"/>
<path d="M633.45,707.44 C633.45,707.44 642.36,707.02 642.36,707.02 C641.25,708.06 633.84,711.27 631.64,711.97 C626.40,713.63 614.06,714.44 604.30,714.18 C591.95,713.71 556.15,710.34 543.15,708.47 C512.72,703.39 478.64,697.62 472.58,696.20" fill="none" stroke="rgb(250, 142, 67)" stroke-width="100.00" stroke-opacity="1.00" stroke-linejoin="round"/>
<path d="M653.79,708.66 C653.79,708.66 656.44,707.95 656.44,707.95 C652.06,710.16 647.16,712.36 643.45,713.40 C637.73,714.95 625.45,716.28 616.73,716.46 C597.28,716.69 571.87,716.08 551.46,714.68 C543.99,714.11 529.95,712.97 523.38,712.39 C520.08,712.05 516.11,711.43 511.53,710.61" fill="none" stroke="rgb(250, 142, 67)" stroke-width="100.00" stroke-opacity="1.00" stroke-linejoin="round"/>
<path d="M639.55,707.85 C639.55,707.85 643.62,707.03 643.62,707.03 C639.10,708.89 631.19,710.14 619.83,711.16 C612.04,711.72 597.18,712.58 590.18,712.74 C573.88,712.80 544.12,710.84 528.13,709.19 C520.66,708.23 506.55,706.07 499.50,704.81 C483.24,701.49 455.47,693.77 442.30,689.13 C428.16,683.76 405.51,674.25 387.46,665.51 C368.50,656.05 344.15,642.64 340.74,640.92" fill="none" stroke="rgb(250, 142, 67)" stroke-width="100.00" stroke-opacity="1.00" stroke-linejoin="round"/>
<path d="M426.39,694.83 C425.27,694.41 422.53,693.36 421.54,692.89 C414.68,689.64 390.81,673.76 372.64,660.68 C359.27,650.99 332.82,631.70 319.74,622.09 C311.39,615.76 280.32,590.08 275.67,585.65 C274.51,584.54 272.76,582.78 271.93,581.90" fill="none" stroke="rgb(250, 142, 67)" stroke-width="100.00" stroke-opacity="1.00" stroke-linejoin="round"/>
<path d="M405.64,685.47 C405.64,685.47 409.30,686.69 409.30,686.69 C406.02,686.16 398.35,684.86 395.24,683.90 C389.68,682.16 378.00,676.04 371.31,671.66 C363.20,666.32 337.30,645.17 324.75,634.76 C313.33,624.91 290.06,604.85 278.22,594.63 C271.93,589.29 261.04,580.09 256.44,576.22" fill="none" stroke="rgb(250, 142, 67)" stroke-width="100.00" stroke-opacity="1.00" stroke-linejoin="round"/>
<path d="M372.28,669.61 C372.28,669.61 374.11,670.32 374.11,670.32 C370.05,667.20 358.64,658.29 351.30,652.50 C340.49,643.76 317.20,624.68 304.70,614.33 C292.23,603.67 268.70,583.38 257.65,573.74 C250.26,567.19 238.00,556.28 233.13,551.92 C232.64,551.48 232.15,551.04 231.66,550.60" fill="none" stroke="rgb(250, 142, 67)" stroke-width="100.00" stroke-opacity="1.00" stroke-linejoin="round"/>
<path d="M312.89,623.23 C312.89,623.23 316.43,626.37 316.43,626.37 C313.15,623.61 290.12,605.15 276.34,592.83 C253.69,571.83 225.26,545.54 219.47,540.24 C216.14,537.28 210.86,532.60 208.92,530.89" fill="none" stroke="rgb(250, 142, 67)" stroke-width="100.00" stroke-opacity="1.00" stroke-linejoin="round"/>
<path d="M209.96,532.92 C211.64,535.28 212.37,536.23 213.28,537.25 C221.33,546.46 246.39,569.22 258.32,579.89 C264.71,585.53 276.50,595.89 281.89,600.63 C289.75,607.45 302.28,618.21 306.94,622.15 C307.37,622.52 307.81,622.89 308.25,623.26" fill="none" stroke="rgb(250, 142, 67)" stroke-width="100.00" stroke-opacity="1.00" stroke-linejoin="round"/>
<path d="M214.85,538.21 C214.85,538.21 213.22,537.90 213.22,537.90 C213.47,539.90 220.83,549.13 226.13,554.11 C237.36,564.21 261.51,585.59 274.42,596.85 C280.81,602.31 292.22,612.06 297.24,616.34 C302.96,621.19 311.56,628.47 315.08,631.06" fill="none" stroke="rgb(250, 142, 67)" stroke-width="100.00" stroke-opacity="1.00" stroke-linejoin="round"/>
<path d="M212.81,539.02 C212.90,540.52 216.87,545.24 219.21,548.03 C225.81,555.63 250.71,579.97 260.87,589.25 C268.97,596.36 297.69,619.23 310.41,629.18 C316.46,633.81 322.89,638.27 323.63,638.78" fill="none" stroke="rgb(250, 142, 67)" stroke-width="100.00" stroke-opacity="1.00" stroke-linejoin="round"/>
<path d="M375.94,657.81 C375.94,657.81 381.55,658.94 381.55,658.94 C379.29,657.99 362.82,648.39 358.15,645.39 C352.60,641.74 318.00,615.87 308.05,607.72 C301.63,602.24 289.91,592.13 284.61,587.50 C276.38,580.15 271.45,575.24 265.56,568.87 C259.15,561.85 250.74,551.96 246.26,545.23 C241.42,537.86 240.81,534.98 240.49,532.49 C241.85,531.71 242.86,531.56 244.36,532.16 C248.75,533.90 256.17,538.24 264.59,543.47 C290.36,560.28 320.92,583.96 320.79,583.94 C315.43,579.54 308.04,572.23 300.06,563.35 C293.89,556.24 285.14,544.83 282.02,539.78 C277.62,532.60 275.30,524.72 275.29,523.11 C275.34,520.78 276.49,517.64 277.95,516.68 C279.26,515.86 282.20,515.21 283.75,515.23 C286.91,515.36 291.55,516.43 295.00,517.71 C300.64,519.84 315.68,528.09 322.06,532.46 C325.28,534.68 339.25,545.13 343.96,549.60 C351.30,556.65 355.12,562.65 355.43,563.67 C355.89,565.40 355.35,567.50 353.99,567.92 C351.58,568.62 345.86,567.78 342.83,566.98 C335.89,565.08 318.61,559.66 314.61,558.57 C309.20,557.20 308.00,557.09 306.28,557.16 C305.61,558.23 308.27,560.95 311.24,563.49 C322.46,572.87 379.73,613.21 392.88,622.41 C405.66,631.40 412.86,638.43 413.62,639.18 C411.93,639.88 410.83,639.93 409.08,639.20 C403.42,636.80 366.78,618.11 351.30,610.16 C340.30,604.32 332.00,599.50 331.85,599.43 C331.67,599.34 331.41,599.26 331.07,599.17" fill="none" stroke="rgb(250, 142, 67)" stroke-width="100.00" stroke-opacity="1.00" stroke-linejoin="round"/>
<path d="M863.50,528.00 C863.50,528.00 872.59,524.41 872.59,524.41 C871.53,522.95 866.70,521.02 863.97,520.20 C853.68,517.17 820.83,505.51 805.85,500.09 C790.22,494.82 759.76,485.69 745.61,481.66 C734.36,478.75 701.05,472.61 686.11,470.93 C659.42,468.23 649.17,467.61 644.96,467.70 C642.94,467.75 642.20,467.98 641.56,468.61 C644.26,469.93 657.40,473.28 663.81,474.90 C697.98,482.95 764.44,498.20 796.71,505.41 C810.92,508.45 849.11,516.85 854.15,517.65 C859.47,518.45 860.66,518.10 861.42,517.25 C860.19,515.16 853.07,510.00 850.79,508.54 C844.46,504.53 813.56,491.19 795.73,484.49 C783.93,480.33 751.47,470.78 736.53,467.12 C729.09,465.51 714.09,462.44 706.24,461.07 C698.55,459.86 683.76,457.95 675.77,457.48 C665.27,456.98 654.94,456.89 647.79,457.58 C639.90,458.37 630.52,459.92 626.63,460.80 C624.97,461.16 624.28,461.94 623.62,463.79 C628.30,466.19 643.04,470.03 650.12,471.83 C667.05,476.01 698.58,483.83 713.18,487.47 C728.20,491.45 759.13,499.92 775.04,504.40 C817.62,516.99 832.72,522.41 833.23,523.27 C817.94,520.97 742.37,508.07 712.61,503.59 C696.97,501.39 665.49,497.22 649.67,495.25 C633.71,493.57 603.79,491.27 588.06,491.34 C583.32,491.38 581.31,491.48 577.31,491.87 C574.11,492.20 571.71,492.94 567.81,494.67 C567.67,496.94 568.09,498.25 569.68,499.27 C573.83,501.92 587.09,507.05 594.92,509.31 C612.31,514.02 640.14,520.26 656.32,523.44 C672.20,526.34 702.44,531.16 718.14,533.29 C734.49,535.12 770.07,538.67 782.45,539.36 C829.73,541.35 839.44,539.15 839.67,538.83 C834.50,538.03 799.13,537.51 781.00,537.33 C747.68,537.21 680.89,537.18 648.03,537.82 C634.98,538.42 625.26,539.44 620.06,540.01 C611.25,541.07 607.53,542.70 605.08,544.44 C605.90,546.33 606.85,547.33 608.90,548.10 C614.79,550.32 623.69,552.14 634.69,554.06 C647.61,556.16 679.83,559.71 695.30,560.84 C710.85,561.60 744.89,562.81 756.37,562.68 C787.05,561.96 829.48,558.95 844.33,557.88 C829.32,560.86 804.64,564.49 794.66,565.68 C759.54,568.96 689.14,575.20 653.86,578.16 C606.32,582.47 598.32,586.19 597.42,586.69 C597.42,586.69 597.33,588.29 597.33,588.29 C601.29,590.06 607.09,591.00 610.62,591.37 C620.09,592.31 653.08,593.16 671.88,592.78 C687.58,592.17 718.92,590.15 734.61,588.77 C749.99,587.10 784.95,583.09 791.69,582.58 C788.19,584.20 748.90,595.99 731.94,600.98 C715.33,605.54 685.48,613.04 671.03,616.55 C656.41,619.81 627.81,625.47 612.74,628.04 C593.64,631.01 568.15,634.02 553.27,635.35 C541.74,636.16 502.18,637.30 490.07,637.19 C469.40,636.55 425.24,634.16 420.92,634.00 C425.62,635.15 462.65,638.67 477.72,639.65 C491.96,640.38 516.70,640.90 536.46,640.58 C552.48,640.11 582.04,638.38 599.23,636.81 C630.35,633.27 692.06,625.86 703.50,626.04 C707.65,626.16 709.43,626.95 711.33,628.17 C710.99,630.03 710.54,631.08 709.47,631.91 C705.62,634.91 696.40,639.20 687.17,642.57 C681.40,644.56 668.31,648.49 658.51,650.98 C643.76,654.46 610.51,659.95 598.65,661.35 C582.73,662.85 550.54,664.91 540.77,665.13 C524.06,665.13 491.32,664.55 474.96,664.23 C465.13,664.09 462.36,665.12 461.48,665.81 C462.98,668.01 473.05,671.13 484.58,674.01 C495.39,676.53 504.90,678.36 514.63,679.79 C521.59,680.66 538.30,682.27 542.42,682.50 C550.41,682.82 566.13,682.92 573.60,682.67 C580.92,682.27 595.80,681.00 603.22,680.13 C617.00,678.29 637.02,673.61 640.12,672.88 C631.34,675.67 621.78,677.69 614.88,678.54 C606.37,679.55 596.42,680.10 585.92,680.22 C574.55,680.08 540.48,677.66 526.04,676.19 C511.00,674.41 468.31,666.16 463.41,665.39 C462.72,665.28 462.03,665.17 461.35,665.07" fill="none" stroke="rgb(250, 142, 67)" stroke-width="100.00" stroke-opacity="1.00" stroke-linejoin="round"/>
</g>
</svg>
