<?xml version="1.0" encoding="UTF-8" standalone="no"?>
<!-- Created with Inkscape (http://www.inkscape.org/) -->

<svg
   width="141.64317mm"
   height="65.625359mm"
   viewBox="0 0 141.64317 65.625359"
   version="1.1"
   id="svg5"
   inkscape:version="1.1.1 (3bf5ae0d25, 2021-09-20)"
   sodipodi:docname="fish-yellow.svg"
   xmlns:inkscape="http://www.inkscape.org/namespaces/inkscape"
   xmlns:sodipodi="http://sodipodi.sourceforge.net/DTD/sodipodi-0.dtd"
   xmlns="http://www.w3.org/2000/svg"
   xmlns:svg="http://www.w3.org/2000/svg">
  <sodipodi:namedview
     id="namedview7"
     pagecolor="#ffffff"
     bordercolor="#666666"
     borderopacity="1.0"
     inkscape:pageshadow="2"
     inkscape:pageopacity="0.0"
     inkscape:pagecheckerboard="0"
     inkscape:document-units="mm"
     showgrid="false"
     inkscape:zoom="1.0104048"
     inkscape:cx="256.82776"
     inkscape:cy="278.60121"
     inkscape:window-width="1920"
     inkscape:window-height="991"
     inkscape:window-x="-9"
     inkscape:window-y="-9"
     inkscape:window-maximized="1"
     inkscape:current-layer="layer3" />
  <defs
     id="defs2" />
  <g
     inkscape:label="Layer 1"
     inkscape:groupmode="layer"
     id="layer1"
     style="display:none"
     transform="translate(-47.92015,-90.796855)">
    <path
       style="fill:none;stroke:#000000;stroke-width:0.264583px;stroke-linecap:butt;stroke-linejoin:miter;stroke-opacity:1"
       d="M 47.599097,126.7514 C 99.41205,53.744898 151.61621,117.05086 151.61621,117.05086"
       id="path364"
       sodipodi:nodetypes="cc" />
    <path
       style="fill:none;stroke:#000000;stroke-width:0.249039px;stroke-linecap:butt;stroke-linejoin:miter;stroke-opacity:1"
       d="m 47.599097,126.7514 c 53.776893,64.23019 106.230413,5.0857 106.230413,5.0857"
       id="path364-5"
       sodipodi:nodetypes="cc" />
    <path
       style="fill:none;stroke:#000000;stroke-width:0.264583px;stroke-linecap:butt;stroke-linejoin:miter;stroke-opacity:1"
       d="m 151.61621,117.05086 38.23138,-26.840523 v 0 l -1.44022,65.595613 -34.57786,-23.96885"
       id="path832"
       sodipodi:nodetypes="ccccc" />
  </g>
  <g
     inkscape:groupmode="layer"
     id="layer3"
     inkscape:label="Layer 2"
     transform="translate(-47.92015,-90.796855)"
     style="display:inline">
    <path
       style="fill:#e4572e;fill-opacity:1;stroke:none;stroke-width:0.0736916"
       d="m 97.87715,156.397 c 1.110848,-0.10603 2.45126,-0.29199 3.2837,-0.45556 7.6521,-1.50354 15.04304,-6.28326 21.80772,-14.10307 1.11102,-1.28432 2.1775,-2.59359 2.1775,-2.67323 0,-0.0808 -1.82873,-2.67413 -2.67471,-3.79303 -2.90998,-3.84879 -6.13718,-7.25238 -9.21083,-9.7143 -4.69568,-3.76112 -9.44561,-5.90802 -14.633839,-6.6143 -1.238596,-0.16861 -4.525223,-0.19319 -5.675072,-0.0424 -2.904954,0.38085 -5.606522,1.11667 -8.202558,2.23412 -3.889135,1.67404 -8.062006,4.45808 -11.711515,7.81363 -1.157938,1.06467 -3.21631,3.1981 -3.857001,3.99764 -0.340315,0.42468 -0.502057,0.5719 -0.606768,0.55223 -0.07853,-0.0147 -4.748588,-3.47422 -10.377919,-7.68774 -5.629329,-4.21352 -10.252937,-7.64198 -10.274681,-7.61881 -0.03128,0.0334 0.662241,35.79609 0.721019,37.18097 l 0.01528,0.35988 9.315691,-6.88275 c 5.123629,-3.78552 9.369422,-6.88296 9.435093,-6.8832 0.06567,-1.6e-4 0.267232,0.18396 0.44791,0.40933 0.671819,0.83802 3.108289,3.15475 4.75084,4.51734 6.332411,5.25313 12.946044,8.34069 19.844918,9.26458 0.853393,0.11429 4.661195,0.21165 5.425226,0.13871 z"
       id="path3207" />
    <path
       style="fill:#f5d873;fill-opacity:1;stroke:#f5d873;stroke-width:0;stroke-miterlimit:4;stroke-dasharray:none;stroke-opacity:1"
       d="m 98.947927,156.25106 c 2.772313,-0.37271 4.956223,-0.93041 7.352613,-1.87762 6.11793,-2.41823 12.01595,-7.00573 17.54921,-13.64985 1.39269,-1.67229 1.29627,-1.47357 0.96523,-1.9892 -0.15162,-0.23618 -0.7634,-1.1058 -1.35951,-1.93251 -5.53683,-7.67865 -11.40897,-12.91255 -17.54773,-15.64048 -2.5417,-1.12947 -5.60329,-1.94516 -8.046454,-2.14378 -1.224025,-0.0995 -3.688614,-0.0992 -4.634416,6.4e-4 -3.93234,0.41481 -8.079863,1.80265 -11.86749,3.97108 -4.260127,2.43894 -8.290045,5.74003 -11.715882,9.59701 -0.506178,0.56988 -0.965243,1.03615 -1.020141,1.03615 -0.134078,0 -1.173308,-0.76181 -9.222502,-6.76051 -7.397064,-5.51273 -10.904783,-8.11786 -11.2368,-8.34543 l -0.20788,-0.14248 0.04908,3.00272 c 0.07036,4.30417 0.44958,24.04862 0.580756,30.23709 0.02129,1.00417 0.0573,2.34371 0.08004,2.97675 l 0.04134,1.15097 5.7215,-4.22619 c 6.357069,-4.69567 12.827689,-9.44877 12.997748,-9.44877 0.05847,0 0.324429,0.24316 0.591028,0.54035 0.266596,0.29718 0.934446,0.97663 1.484107,1.50988 7.018234,6.8087 14.844881,10.9735 22.664613,12.06055 1.281334,0.17812 5.651511,0.22561 6.781537,0.0737 z"
       id="path3283"
       sodipodi:nodetypes="csssssscssssscssscssssscc" />
    <circle
       style="fill:#60cbdb;fill-opacity:1;fill-rule:evenodd;stroke-width:0.0405388"
       id="path846"
       cx="169.29169"
       cy="106.11559"
       r="6.8939409" />
    <circle
       style="display:inline;fill:#60cbdb;fill-opacity:1;fill-rule:evenodd;stroke-width:0.0166716"
       id="path846-8"
       cx="149.91412"
       cy="130.73032"
       r="2.8351305" />
  </g>
  <g
     inkscape:groupmode="layer"
     id="layer4"
     inkscape:label="Layer 3"
     transform="translate(-47.92015,-90.796855)"
     style="display:inline">
    <ellipse
       style="fill:#ffffff;fill-rule:evenodd;stroke-width:0.123759"
       id="path3722"
       cx="-106.80301"
       cy="135.35875"
       rx="5.9057546"
       ry="6.1323109"
       transform="scale(-1,1)" />
    <ellipse
       style="fill:#000000;fill-rule:evenodd;stroke-width:0.0864857"
       id="path3722-4"
       cx="-166.4848"
       cy="40.352356"
       rx="4.2195358"
       ry="4.1915269"
       transform="matrix(-0.78904462,-0.61433589,-0.56544111,0.82478867,0,0)" />
  </g>
</svg>
