<?xml version="1.0" encoding="UTF-8" standalone="no"?>
<!-- Created with Inkscape (http://www.inkscape.org/) -->

<svg
   width="141.64317mm"
   height="65.625359mm"
   viewBox="0 0 141.64317 65.625359"
   version="1.1"
   id="svg5"
   inkscape:version="1.1.1 (3bf5ae0d25, 2021-09-20)"
   sodipodi:docname="Fish Orange.svg"
   xmlns:inkscape="http://www.inkscape.org/namespaces/inkscape"
   xmlns:sodipodi="http://sodipodi.sourceforge.net/DTD/sodipodi-0.dtd"
   xmlns="http://www.w3.org/2000/svg"
   xmlns:svg="http://www.w3.org/2000/svg">
  <sodipodi:namedview
     id="namedview7"
     pagecolor="#ffffff"
     bordercolor="#666666"
     borderopacity="1.0"
     inkscape:pageshadow="2"
     inkscape:pageopacity="0.0"
     inkscape:pagecheckerboard="0"
     inkscape:document-units="mm"
     showgrid="false"
     inkscape:zoom="1.0104048"
     inkscape:cx="155.87812"
     inkscape:cy="217.23966"
     inkscape:window-width="1920"
     inkscape:window-height="991"
     inkscape:window-x="-9"
     inkscape:window-y="-9"
     inkscape:window-maximized="1"
     inkscape:current-layer="layer1" />
  <defs
     id="defs2" />
  <g
     inkscape:label="Layer 1"
     inkscape:groupmode="layer"
     id="layer1"
     style="display:none"
     transform="translate(-47.92015,-90.796855)">
    <path
       style="fill:none;stroke:#000000;stroke-width:0.264583px;stroke-linecap:butt;stroke-linejoin:miter;stroke-opacity:1"
       d="M 47.599097,126.7514 C 99.41205,53.744898 151.61621,117.05086 151.61621,117.05086"
       id="path364"
       sodipodi:nodetypes="cc" />
    <path
       style="fill:none;stroke:#000000;stroke-width:0.249039px;stroke-linecap:butt;stroke-linejoin:miter;stroke-opacity:1"
       d="m 47.599097,126.7514 c 53.776893,64.23019 106.230413,5.0857 106.230413,5.0857"
       id="path364-5"
       sodipodi:nodetypes="cc" />
    <path
       style="fill:none;stroke:#000000;stroke-width:0.264583px;stroke-linecap:butt;stroke-linejoin:miter;stroke-opacity:1"
       d="m 151.61621,117.05086 38.23138,-26.840523 v 0 l -1.44022,65.595613 -34.57786,-23.96885"
       id="path832"
       sodipodi:nodetypes="ccccc" />
  </g>
  <g
     inkscape:groupmode="layer"
     id="layer3"
     inkscape:label="Layer 2"
     transform="translate(-47.92015,-90.796855)">
    <path
       style="fill:#e4572e;fill-opacity:1;stroke:none;stroke-width:0.494851"
       d="m 370.14868,591.03811 c -7.70057,-0.68976 -16.99257,-1.89941 -22.76316,-2.96337 -53.04581,-9.78036 -104.28114,-40.87197 -151.17512,-91.73901 -7.70182,-8.35436 -15.09487,-16.87104 -15.09487,-17.38907 0,-0.52552 12.67712,-17.39496 18.54158,-24.67328 20.17255,-25.03597 42.54405,-47.17598 63.85114,-63.19046 32.55136,-24.46572 65.47874,-38.4311 101.44449,-43.02535 8.58619,-1.09679 31.36969,-1.25666 39.34067,-0.27604 20.13764,2.4774 38.8654,7.26384 56.86164,14.53269 26.96019,10.88946 55.88729,28.99933 81.18636,50.82686 8.02704,6.92557 22.29605,20.80326 26.73744,26.00418 2.35912,2.76256 3.48035,3.72012 4.20623,3.59225 0.54434,-0.0959 32.91808,-22.59948 71.94164,-50.00797 39.02354,-27.40849 71.07525,-49.71029 71.22598,-49.55956 0.21685,0.21682 -4.59078,232.8498 -4.99824,241.85828 l -0.1059,2.341 -64.57808,-44.77161 c -35.51794,-24.62439 -64.95055,-44.77291 -65.4058,-44.77449 -0.45525,-10e-4 -1.8525,1.19662 -3.10499,2.66269 -4.65718,5.45129 -21.54724,20.52131 -32.9337,29.38485 -43.89744,34.17098 -89.74438,54.25529 -137.56862,60.2651 -5.91591,0.74342 -32.31228,1.37672 -37.60869,0.90231 z"
       id="path3207"
       transform="scale(0.26458333)" />
    <path
       style="fill:#e4572e;fill-opacity:1;stroke-width:0.494851"
       d="m 362.72591,590.08876 c -19.21822,-2.42445 -34.35747,-6.05224 -50.96967,-12.21375 -42.4107,-15.73025 -83.29687,-45.57149 -121.65442,-88.79085 -9.65434,-10.87802 -8.98592,-9.5854 -6.69113,-12.93953 1.05109,-1.53631 5.29206,-7.19313 9.42437,-12.57071 38.38236,-49.94882 79.0891,-83.99478 121.64413,-101.73971 17.61948,-7.3471 38.84298,-12.65305 55.77948,-13.94505 8.48515,-0.64729 25.57012,-0.64537 32.12662,0.004 27.25971,2.69828 56.01109,11.72601 82.26762,25.83146 29.53198,15.86507 57.46813,37.33831 81.21666,62.42752 3.50892,3.70702 6.69124,6.74004 7.07181,6.74004 0.92945,0 8.13359,-4.95545 63.93208,-43.97639 51.27781,-35.85955 75.59396,-52.80563 77.89556,-54.28596 l 1.44106,-0.92684 -0.34021,19.53239 c -0.48773,27.99817 -3.11657,156.43374 -4.02591,196.6891 -0.14757,6.53204 -0.39722,15.24558 -0.55488,19.36342 l -0.28657,7.48698 -39.66249,-27.491 c -44.06837,-30.54482 -88.9239,-61.46322 -90.10278,-61.46322 -0.4053,0 -2.249,1.5817 -4.09711,3.51488 -1.8481,1.93319 -6.47776,6.35295 -10.28811,9.82168 -48.65166,44.28978 -102.90746,71.38141 -157.11525,78.45258 -8.88241,1.15867 -39.17735,1.46757 -47.01086,0.47934 z"
       id="path3283"
       transform="scale(0.26458333)"
       sodipodi:nodetypes="csssssscssssscssscssssscc" />
  </g>
  <g
     inkscape:groupmode="layer"
     id="layer4"
     inkscape:label="Layer 3"
     transform="translate(-47.92015,-90.796855)">
    <ellipse
       style="fill:#ffffff;fill-rule:evenodd;stroke-width:0.219884"
       id="path3722"
       cx="81.563904"
       cy="120.17018"
       rx="10.831983"
       ry="10.554238" />
    <ellipse
       style="fill:#000000;fill-rule:evenodd;stroke-width:0.15352"
       id="path3722-4"
       cx="-7.8185844"
       cy="143.54124"
       rx="7.5627193"
       ry="7.3688025"
       transform="rotate(-36.15154)" />
  </g>
</svg>
